{
    "asset" : {
        "generator" : "Khronos glTF Blender I/O v1.7.33",
        "version" : "2.0"
    },
    "scene" : 0,
    "scenes" : [
        {
            "name" : "Models : M",
            "nodes" : [
                23
            ]
        }
    ],
    "nodes" : [
        {
            "mesh" : 0,
            "name" : "man-casual_Rig"
        },
        {
            "name" : "Head",
            "rotation" : [
                -0.20722684264183044,
                -1.9791912791826405e-13,
                -4.940758557836489e-08,
                0.9782929420471191
            ],
            "scale" : [
                1,
                0.9999999403953552,
                0.9999998807907104
            ],
            "translation" : [
                -8.462341938297868e-11,
                0.0898316353559494,
                9.17204303618746e-08
            ]
        },
        {
            "children" : [
                1
            ],
            "name" : "Neck",
            "rotation" : [
                0.24562925100326538,
                1.1555690093700832e-07,
                2.9282421820653326e-08,
                0.9693638682365417
            ],
            "scale" : [
                1,
                1,
                0.9999998807907104
            ],
            "translation" : [
                -1.16931395122144e-10,
                0.16637299954891205,
                0.00011783118679886684
            ]
        },
        {
            "name" : "LeftHand",
            "rotation" : [
                0.0859672948718071,
                -0.0003087721997871995,
                -0.002183017088100314,
                0.9962955117225647
            ],
            "scale" : [
                1,
                1.0000001192092896,
                0.9999999403953552
            ],
            "translation" : [
                5.587935447692871e-09,
                0.26349329948425293,
                -9.592622518539429e-08
            ]
        },
        {
            "children" : [
                3
            ],
            "name" : "LeftForeArm",
            "rotation" : [
                -0.018642215058207512,
                -0.0004223152936901897,
                0.022639062255620956,
                0.9995697736740112
            ],
            "scale" : [
                1.0000001192092896,
                1.000000238418579,
                0.9999999403953552
            ],
            "translation" : [
                -8.430543374515764e-09,
                0.2919122576713562,
                -1.176323749518815e-07
            ]
        },
        {
            "children" : [
                4
            ],
            "name" : "LeftArm",
            "rotation" : [
                -0.1778252124786377,
                -0.0017421857919543982,
                0.009641284123063087,
                0.9840133190155029
            ],
            "scale" : [
                0.9999999403953552,
                0.9999999403953552,
                0.9999999403953552
            ],
            "translation" : [
                3.531704706460914e-09,
                0.12544259428977966,
                -4.845208323445149e-08
            ]
        },
        {
            "children" : [
                5
            ],
            "name" : "LeftShoulder",
            "rotation" : [
                0.5800520777702332,
                0.407234787940979,
                -0.5919371247291565,
                0.383809894323349
            ],
            "scale" : [
                1.0000001192092896,
                1,
                0.9999998807907104
            ],
            "translation" : [
                0.05750950425863266,
                0.14320175349712372,
                -0.002170200925320387
            ]
        },
        {
            "name" : "RightHand",
            "rotation" : [
                0.08600865304470062,
                0.00035376849700696766,
                0.0009705300908535719,
                0.9962939620018005
            ],
            "scale" : [
                1.0000001192092896,
                1.0000001192092896,
                1.000000238418579
            ],
            "translation" : [
                -2.1898676205722722e-09,
                0.2635302245616913,
                -4.6726007951747306e-08
            ]
        },
        {
            "children" : [
                7
            ],
            "name" : "RightForeArm",
            "rotation" : [
                -0.018328743055462837,
                0.0005316665628924966,
                -0.02890874817967415,
                0.9994139075279236
            ],
            "scale" : [
                0.9999998807907104,
                0.9999997019767761,
                0.9999998211860657
            ],
            "translation" : [
                -2.8001962970591876e-09,
                0.29195311665534973,
                -5.960465898624534e-08
            ]
        },
        {
            "children" : [
                8
            ],
            "name" : "RightArm",
            "rotation" : [
                -0.1784462034702301,
                0.00014995739911682904,
                -0.0008378411876037717,
                0.9839493036270142
            ],
            "scale" : [
                0.9999999403953552,
                1.000000238418579,
                1
            ],
            "translation" : [
                -3.81987419473262e-09,
                0.12544256448745728,
                -2.0935724265314093e-08
            ]
        },
        {
            "children" : [
                9
            ],
            "name" : "RightShoulder",
            "rotation" : [
                0.5826545357704163,
                -0.4054330885410309,
                0.589663028717041,
                0.38527312874794006
            ],
            "scale" : [
                1,
                1,
                1.0000001192092896
            ],
            "translation" : [
                -0.05750949680805206,
                0.14315922558307648,
                -0.0016885315999388695
            ]
        },
        {
            "children" : [
                2,
                6,
                10
            ],
            "name" : "Spine2",
            "rotation" : [
                -0.012511197477579117,
                2.1057733681772994e-11,
                -3.516268110015375e-10,
                0.9999217391014099
            ],
            "scale" : [
                1,
                0.9999998807907104,
                0.9999999403953552
            ],
            "translation" : [
                -1.1211108430497774e-10,
                0.16545610129833221,
                -9.313763094098704e-10
            ]
        },
        {
            "children" : [
                11
            ],
            "name" : "Spine1",
            "rotation" : [
                -0.0007713448721915483,
                -1.3921610392264583e-11,
                3.5181199620204495e-10,
                0.9999997019767761
            ],
            "scale" : [
                1,
                1.0000001192092896,
                1
            ],
            "translation" : [
                -1.1641523856020797e-10,
                0.1118946373462677,
                5.306176831254561e-09
            ]
        },
        {
            "children" : [
                12
            ],
            "name" : "Spine",
            "rotation" : [
                -0.027648229151964188,
                0,
                0,
                0.9996178150177002
            ],
            "scale" : [
                1,
                0.9999999403953552,
                0.9999999403953552
            ],
            "translation" : [
                -1.1641532182693481e-10,
                0.11561530828475952,
                -9.313225746154785e-10
            ]
        },
        {
            "name" : "LeftToeBase",
            "rotation" : [
                0.3212243914604187,
                0.061652760952711105,
                0.034071099013090134,
                0.9443798065185547
            ],
            "scale" : [
                0.9999998807907104,
                1.0000001192092896,
                0.9999998807907104
            ],
            "translation" : [
                -5.1134372291983254e-09,
                0.1553630381822586,
                6.462239632298861e-09
            ]
        },
        {
            "children" : [
                14
            ],
            "name" : "LeftFoot",
            "rotation" : [
                0.4627174139022827,
                0.017046919092535973,
                -0.009883592836558819,
                0.8862868547439575
            ],
            "scale" : [
                1.0000001192092896,
                0.9999999403953552,
                0.9999997615814209
            ],
            "translation" : [
                -4.349778315315689e-10,
                0.38520199060440063,
                -1.4909318224454182e-08
            ]
        },
        {
            "children" : [
                15
            ],
            "name" : "LeftLeg",
            "rotation" : [
                -0.010621030814945698,
                0.000125366379506886,
                -0.015352096408605576,
                0.9998257756233215
            ],
            "scale" : [
                0.9999999403953552,
                0.9999998807907104,
                0.9999997615814209
            ],
            "translation" : [
                -3.1547160439515665e-09,
                0.39547082781791687,
                -4.452665791632171e-09
            ]
        },
        {
            "children" : [
                16
            ],
            "name" : "LeftUpLeg",
            "rotation" : [
                0.0006046414491720498,
                0.014660259708762169,
                -0.9995273947715759,
                0.02701214887201786
            ],
            "scale" : [
                1.0000108480453491,
                1,
                1.0000030994415283
            ],
            "translation" : [
                0.07914488017559052,
                -0.043613385409116745,
                -0.008931259624660015
            ]
        },
        {
            "name" : "RightToeBase",
            "rotation" : [
                0.3184804618358612,
                -0.06690042465925217,
                -0.03524850308895111,
                0.944908618927002
            ],
            "translation" : [
                -4.5625819788952526e-10,
                0.15649671852588654,
                1.2882328981334012e-08
            ]
        },
        {
            "children" : [
                18
            ],
            "name" : "RightFoot",
            "rotation" : [
                0.4682321548461914,
                -0.01676642708480358,
                0.009814740158617496,
                0.8833918571472168
            ],
            "scale" : [
                0.9999999403953552,
                0.9999999403953552,
                0.9999998807907104
            ],
            "translation" : [
                -3.205627985281012e-09,
                0.38533005118370056,
                -1.0400384553577169e-08
            ]
        },
        {
            "children" : [
                19
            ],
            "name" : "RightLeg",
            "rotation" : [
                -0.015557624399662018,
                -0.0355132594704628,
                0.010035788640379906,
                0.9991977214813232
            ],
            "scale" : [
                0.9999997019767761,
                1,
                1
            ],
            "translation" : [
                -4.173643208815747e-09,
                0.3952653110027313,
                -4.821448795766514e-10
            ]
        },
        {
            "children" : [
                20
            ],
            "name" : "RightUpLeg",
            "rotation" : [
                -0.03484537452459335,
                -0.012765927240252495,
                0.9990532398223877,
                0.022704698145389557
            ],
            "scale" : [
                1.0000224113464355,
                1.0000003576278687,
                1.0000083446502686
            ],
            "translation" : [
                -0.08292655646800995,
                -0.04361314699053764,
                -0.008931252174079418
            ]
        },
        {
            "children" : [
                13,
                17,
                21
            ],
            "name" : "Hips",
            "rotation" : [
                -0.0030849219765514135,
                0,
                0,
                0.999995231628418
            ],
            "translation" : [
                0.0018908436177298427,
                0.9363905787467957,
                0.008605758659541607
            ]
        },
        {
            "children" : [
                0,
                22
            ],
            "name" : "Armature"
        }
    ],
    "materials" : [
        {
            "doubleSided" : true,
            "name" : "17 GREY-DARKEST",
            "pbrMetallicRoughness" : {
                "baseColorFactor" : [
                    0.028426043689250946,
                    0.02842603623867035,
                    0.02842603623867035,
                    1
                ],
                "metallicFactor" : 0,
                "roughnessFactor" : 0.5
            }
        },
        {
            "doubleSided" : true,
            "name" : "11 BROWN-MEDIUM",
            "pbrMetallicRoughness" : {
                "baseColorFactor" : [
                    0.24620145559310913,
                    0.10461647063493729,
                    0.04091521352529526,
                    1
                ],
                "metallicFactor" : 0,
                "roughnessFactor" : 0.5
            }
        },
        {
            "doubleSided" : true,
            "name" : "13 BROWN-LIGHT",
            "pbrMetallicRoughness" : {
                "baseColorFactor" : [
                    0.610495924949646,
                    0.32777804136276245,
                    0.1169707179069519,
                    1
                ],
                "metallicFactor" : 0,
                "roughnessFactor" : 0.5
            }
        },
        {
            "doubleSided" : true,
            "name" : "6 SKIN-LIGHTEST",
            "pbrMetallicRoughness" : {}
        }
    ],
    "meshes" : [
        {
            "name" : "man-casual_Rig",
            "primitives" : [
                {
                    "attributes" : {
                        "POSITION" : 0,
                        "NORMAL" : 1,
                        "TEXCOORD_0" : 2
                    },
                    "indices" : 3,
                    "material" : 0
                },
                {
                    "attributes" : {
                        "POSITION" : 4,
                        "NORMAL" : 5,
                        "TEXCOORD_0" : 6
                    },
                    "indices" : 7,
                    "material" : 1
                },
                {
                    "attributes" : {
                        "POSITION" : 8,
                        "NORMAL" : 9,
                        "TEXCOORD_0" : 10
                    },
                    "indices" : 11,
                    "material" : 2
                },
                {
                    "attributes" : {
                        "POSITION" : 12,
                        "NORMAL" : 13,
                        "TEXCOORD_0" : 14
                    },
                    "indices" : 15,
                    "material" : 3
                }
            ]
        }
    ],
    "accessors" : [
        {
            "bufferView" : 0,
            "componentType" : 5126,
            "count" : 140,
            "max" : [
                0.3219088017940521,
                1.5224082469940186,
                0.12624414265155792
            ],
            "min" : [
                -0.3219088017940521,
                0.9374396204948425,
                -0.10462581366300583
            ],
            "type" : "VEC3"
        },
        {
            "bufferView" : 1,
            "componentType" : 5126,
            "count" : 140,
            "type" : "VEC3"
        },
        {
            "bufferView" : 2,
            "componentType" : 5126,
            "count" : 140,
            "type" : "VEC2"
        },
        {
            "bufferView" : 3,
            "componentType" : 5123,
            "count" : 204,
            "type" : "SCALAR"
        },
        {
            "bufferView" : 4,
            "componentType" : 5126,
            "count" : 208,
            "max" : [
                0.15554261207580566,
                1.845423698425293,
                0.1614215075969696
            ],
            "min" : [
                -0.15554261207580566,
                0.000691625929903239,
                -0.1092788502573967
            ],
            "type" : "VEC3"
        },
        {
            "bufferView" : 5,
            "componentType" : 5126,
            "count" : 208,
            "type" : "VEC3"
        },
        {
            "bufferView" : 6,
            "componentType" : 5126,
            "count" : 208,
            "type" : "VEC2"
        },
        {
            "bufferView" : 7,
            "componentType" : 5123,
            "count" : 312,
            "type" : "SCALAR"
        },
        {
            "bufferView" : 8,
            "componentType" : 5126,
            "count" : 88,
            "max" : [
                0.19105803966522217,
                0.953267514705658,
                0.12694022059440613
            ],
            "min" : [
                -0.19105803966522217,
                0.6163148880004883,
                -0.11266055703163147
            ],
            "type" : "VEC3"
        },
        {
            "bufferView" : 9,
            "componentType" : 5126,
            "count" : 88,
            "type" : "VEC3"
        },
        {
            "bufferView" : 10,
            "componentType" : 5126,
            "count" : 88,
            "type" : "VEC2"
        },
        {
            "bufferView" : 11,
            "componentType" : 5123,
            "count" : 132,
            "type" : "SCALAR"
        },
        {
            "bufferView" : 12,
            "componentType" : 5126,
            "count" : 472,
            "max" : [
                0.9151479005813599,
                1.769850730895996,
                0.13984347879886627
            ],
            "min" : [
                -0.9151479005813599,
                0.11057566851377487,
                -0.09103133529424667
            ],
            "type" : "VEC3"
        },
        {
            "bufferView" : 13,
            "componentType" : 5126,
            "count" : 472,
            "type" : "VEC3"
        },
        {
            "bufferView" : 14,
            "componentType" : 5126,
            "count" : 472,
            "type" : "VEC2"
        },
        {
            "bufferView" : 15,
            "componentType" : 5123,
            "count" : 720,
            "type" : "SCALAR"
        }
    ],
    "bufferViews" : [
        {
            "buffer" : 0,
            "byteLength" : 1680,
            "byteOffset" : 0
        },
        {
            "buffer" : 0,
            "byteLength" : 1680,
            "byteOffset" : 1680
        },
        {
            "buffer" : 0,
            "byteLength" : 1120,
            "byteOffset" : 3360
        },
        {
            "buffer" : 0,
            "byteLength" : 408,
            "byteOffset" : 4480
        },
        {
            "buffer" : 0,
            "byteLength" : 2496,
            "byteOffset" : 4888
        },
        {
            "buffer" : 0,
            "byteLength" : 2496,
            "byteOffset" : 7384
        },
        {
            "buffer" : 0,
            "byteLength" : 1664,
            "byteOffset" : 9880
        },
        {
            "buffer" : 0,
            "byteLength" : 624,
            "byteOffset" : 11544
        },
        {
            "buffer" : 0,
            "byteLength" : 1056,
            "byteOffset" : 12168
        },
        {
            "buffer" : 0,
            "byteLength" : 1056,
            "byteOffset" : 13224
        },
        {
            "buffer" : 0,
            "byteLength" : 704,
            "byteOffset" : 14280
        },
        {
            "buffer" : 0,
            "byteLength" : 264,
            "byteOffset" : 14984
        },
        {
            "buffer" : 0,
            "byteLength" : 5664,
            "byteOffset" : 15248
        },
        {
            "buffer" : 0,
            "byteLength" : 5664,
            "byteOffset" : 20912
        },
        {
            "buffer" : 0,
            "byteLength" : 3776,
            "byteOffset" : 26576
        },
        {
            "buffer" : 0,
            "byteLength" : 1440,
            "byteOffset" : 30352
        }
    ],
    "buffers" : [
        {
            "byteLength" : 31792,
            "uri" : "data:application/octet-stream;base64,"
        }
    ]
}
